<?xml version="1.0" encoding="utf-8"?>
<!-- Generator: Adobe Illustrator 25.4.1, SVG Export Plug-In . SVG Version: 6.00 Build 0)  -->
<svg version="1.1" id="Layer_1" xmlns="http://www.w3.org/2000/svg" xmlns:xlink="http://www.w3.org/1999/xlink" x="0px" y="0px"
	 viewBox="0 0 532.96 257.61" style="enable-background:new 0 0 532.96 257.61;" xml:space="preserve">
<style type="text/css">
	.st0{fill:url(#SVGID_1_);}
	.st1{fill:#FFCC00;}
	.st2{fill:#00428B;}
	.st3{fill:#FFFFFF;}
	.st4{fill:#324F9E;}
</style>
<g>
	
		<linearGradient id="SVGID_1_" gradientUnits="userSpaceOnUse" x1="-373.5217" y1="-387.8637" x2="-373.5217" y2="-223.1739" gradientTransform="matrix(1.1979 0 0 1.1979 710.8192 471.8899)">
		<stop  offset="0" style="stop-color:#0098C4"/>
		<stop  offset="1" style="stop-color:#C9E3F0"/>
	</linearGradient>
	<path class="st0" d="M19.34,110.39c0,0,4.5,7.57,4.52,7.56l7.93-3.97l1.1-0.55l36.36,80.99l3.49,7.78l8.15-2.69l19.69-6.51
		l8.62-2.85l-2.28-8.76l-10.45-40.13c3.01-2.25,5.82-4.65,8.4-7.16c-0.57,4.82-0.28,9.68,1.03,14.32
		c2.74,9.72,9.11,17.36,17.95,21.53c9.55,4.5,21.2,4.39,31.98-0.3c5.41-2.37,10.22-5.75,14.29-9.8l1.49,15.99l34.46-5.43
		l-0.05-30.99l72.02,34.95V139.8c2.91-0.26,5.86-0.75,8.82-1.5c7.94-2,14.71-4.72,20.74-8.39l-3.02,18.57l38.83,5.73l2.15-14.04
		l10.14,18.68l6.19-12.04l2.26,19.63l44.04,7.33l-2.34-14.83c6.02,0.62,12.38-0.25,18.51-2.62c1.47-0.57,2.89-1.23,4.28-1.95
		l-1.77,15.83l29.31,3.8l0.24,12.04l30.54,9.31l39.8-120.59l-41.43-9.64l-3.93,16.29l-3.64-17.98l-48.69-10.22l0.36,27.12l7.33,1.56
		l-0.55,4.91c-0.07-0.04-0.14-0.08-0.21-0.12c-9.07-4.73-20.35-5.09-30.97-0.97c-3.54,1.4-6.85,3.24-9.86,5.43l-7.31-46.38
		l-32.38,0.34l-0.91,5.34l-34.07,0.36l-3.9,23.94l-2.83-3.46c-8.26-10.1-20.22-15.58-33.48-15.72l28.92-15.87L289.03,9.72
		l-36.46,42.47l6.31,7.64c-5.72,2.39-10.69,5.65-14.79,9.58l-31.25-27.46l-10.95,21.11l0.43-20.17l-48.88,16.14l1.25,26.31
		l8.32-2.26l1.24,13.34c-9.49-4.18-20.9-3.97-31.5,0.64c-3.13,1.38-6.07,3.1-8.77,5.1c1.84-8.15,1.4-16.15-1.69-23.26
		c-3.65-8.39-10.06-15.3-17.93-19.62c-5.52-3.62-12.09-5.85-18.98-6.55c-16.89-2.79-37.2,0.47-57.17,9.19
		c-7.35,3.21-14.21,6.86-20.38,10.87L0,77.83l4.72,7.94 M221.98,104.81l9.25-9.1c-0.4,4.16-0.19,8.47,0.68,12.86L221.98,104.81z
		 M312.84,97.75l-6.36-5.67l6.79-7.32l2.04-2.2L312.84,97.75z"/>
	<path class="st1" d="M491.44,57.45l-3.94,16.25l-3.64-18.02l-48.79-10.73l0.36,27.12l7.35,1.64l-0.55,4.9
		c-0.07-0.04-0.14-0.08-0.21-0.12c-9.09-4.83-20.39-5.31-31.04-1.29c-3.55,1.36-6.86,3.17-9.89,5.33l-7.33-46.45h-32.45l-0.91,5.33
		h-34.14l-3.91,23.9l-2.84-3.49c-8.27-10.18-20.27-15.79-33.55-16.07l28.98-15.57L294.72,0l-36.54,42.09l6.32,7.71
		c-5.73,2.33-10.72,5.54-14.83,9.43l-31.32-27.78l-10.97,20.99l0.43-20.17L158.83,47.9l1.25,26.33l8.33-2.17l1.24,13.35
		c-9.51-4.28-20.95-4.19-31.57,0.31c-3.14,1.35-6.08,3.04-8.79,5c1.84-8.13,1.4-16.14-1.69-23.28
		c-3.65-8.43-10.08-15.41-17.97-19.81c-5.53-3.68-12.12-5.98-19.03-6.75c-16.93-2.97-37.28,0.08-57.3,8.59
		c-7.36,3.13-14.24,6.71-20.43,10.65L5.06,65.1l4.73,7.99l14.66,24.77c0,0,4.51,7.61,4.53,7.6l7.95-3.88l1.1-0.54l36.44,81.37
		l3.5,7.82l8.16-2.61l19.73-6.31l8.64-2.76l-2.29-8.78l-10.48-40.24c3.02-2.22,5.83-4.59,8.42-7.07c-0.57,4.82-0.28,9.67,1.03,14.33
		c2.74,9.75,9.13,17.46,17.99,21.71c9.57,4.6,21.25,4.61,32.05,0.03c5.42-2.31,10.25-5.65,14.32-9.65l1.49,16.01l34.54-5.07
		l-0.05-30.99l72.18,35.7v-34.56c2.92-0.23,5.87-0.69,8.84-1.41c7.96-1.92,14.74-4.57,20.78-8.18l-3.03,18.54l38.92,6.14l2.15-14.02
		l10.17,18.79l6.2-11.97l2.27,19.65l44.13,7.79l-2.34-14.85c6.03,0.68,12.41-0.12,18.55-2.43c1.47-0.56,2.9-1.2,4.29-1.91
		l-1.78,15.82l29.37,4.11l0.24,12.04l30.6,9.63l39.89-120.17L491.44,57.45z M91.13,102.38c-1.42-4.72-4.49-14.89-4.49-14.89
		c0.02,0.06-0.62-2.19-1.33-4.71c2.81-0.49,5.5-0.23,7.7,0.84c1.23,0.6,3.36,1.99,3.83,4.59C97.88,94.06,95.86,98.21,91.13,102.38z
		 M227.52,94.4l9.27-9.01c-0.4,4.15-0.19,8.47,0.68,12.87L227.52,94.4z M270.1,90.74c-2.45-4.48-1.93-10.2,1.71-14.17
		c3.51-3.84,8.9-4.92,13.48-3.15L270.1,90.74z M318.58,88.28l-6.37-5.73l6.81-7.25l2.04-2.17L318.58,88.28z"/>
	<g>
		<path class="st2" d="M491.44,57.45l-3.94,16.25l-3.64-18.02l-48.79-10.73l0.36,27.12l7.35,1.64l-0.55,4.9
			c-0.07-0.04-0.14-0.08-0.21-0.12c-9.09-4.83-20.39-5.31-31.04-1.29c-3.55,1.36-6.86,3.17-9.89,5.33l-7.33-46.45h-32.45l-0.91,5.33
			h-34.14l-3.91,23.9l-2.84-3.49c-8.27-10.18-20.27-15.79-33.55-16.07l28.98-15.57L294.72,0l-36.54,42.09l6.32,7.71
			c-5.73,2.33-10.72,5.54-14.83,9.43l-31.32-27.78l-10.97,20.99l0.43-20.17L158.83,47.9l1.25,26.33l8.33-2.17l1.24,13.35
			c-9.51-4.28-20.95-4.19-31.57,0.31c-3.14,1.35-6.08,3.04-8.79,5c1.84-8.13,1.4-16.14-1.69-23.28
			c-3.65-8.43-10.08-15.41-17.97-19.81c-5.53-3.68-12.12-5.98-19.03-6.75c-16.93-2.97-37.28,0.08-57.3,8.59
			c-7.36,3.13-14.24,6.71-20.43,10.65L5.06,65.1l4.73,7.99l14.66,24.77c0,0,4.51,7.61,4.53,7.6l7.95-3.88l1.1-0.54l36.44,81.37
			l3.5,7.82l8.16-2.61l19.73-6.31l8.64-2.76l-2.29-8.78l-10.48-40.24c3.02-2.22,5.83-4.59,8.42-7.07
			c-0.57,4.82-0.28,9.67,1.03,14.33c2.74,9.75,9.13,17.46,17.99,21.71c9.57,4.6,21.25,4.61,32.05,0.03
			c5.42-2.31,10.25-5.65,14.32-9.65l1.49,16.01l34.54-5.07l-0.05-30.99l72.18,35.7v-34.56c2.92-0.23,5.87-0.69,8.84-1.41
			c7.96-1.92,14.74-4.57,20.78-8.18l-3.03,18.54l38.92,6.14l2.15-14.02l10.17,18.79l6.2-11.97l2.27,19.65l44.13,7.79l-2.34-14.85
			c6.03,0.68,12.41-0.12,18.55-2.43c1.47-0.56,2.9-1.2,4.29-1.91l-1.78,15.82l29.37,4.11l0.24,12.04l30.6,9.63l39.89-120.17
			L491.44,57.45z M319.02,75.3l2.04-2.17l-2.48,15.16l-6.37-5.73L319.02,75.3z M293.16,13.41l10.68,14.52l-30.56,15.14l-2.11-3.2
			L293.16,13.41z M237.48,98.26l-9.96-3.86l9.27-9.01C236.4,89.55,236.61,93.86,237.48,98.26z M90.76,125.4l12.18,46.79l-19.73,6.31
			L42.7,88.04c-2.19,1.15-6.26,3.1-10.01,4.94L18.03,68.21c5.85-3.72,12.23-7.03,19.04-9.92c19.1-8.12,37.3-10.53,51.89-7.97
			c5.14,0.59,10.61,2.12,15.37,5.29c6.57,3.69,11.58,8.94,14.48,15.64C125.86,87.51,114.08,111.01,90.76,125.4z M174.44,136.94
			c-4.1,5.68-9.77,10.42-16.47,13.28c-17.13,7.26-34.25,0-38.82-16.24c-4.44-15.75,5.88-34.44,22.47-41.57
			c10.58-4.49,21.21-3.42,28.84,1.75c4.72,3.2,8.29,7.97,9.99,13.99c0.19,0.65,0.34,1.31,0.47,1.98c0.47,2.29,0.66,4.63,0.59,6.96
			C181.28,124.04,178.72,131.01,174.44,136.94z M274.68,150.15l-71.63-35.83l0.13,37.53l-18.53,2.54l-1.3-15.5
			c5.73-9.79,7.82-21.36,4.83-31.93c-1.64-5.82-4.66-10.9-8.77-14.93l-2.66-31.57l-8.33,2.17l-0.36-7.97l29.77-8.86l1.81,30.69
			l21.93-30.8l21.43,20.4l-29.95,31.58l28.14,11.14c3.16,5.95,7.93,11.03,13.96,14.75c5.83,3.59,12.48,5.73,19.55,6.39V150.15z
			 M290.36,119.52c-2.25,0.54-4.47,0.91-6.64,1.12c-16.43,1.6-30.21-5.96-35.46-18.19c-0.63-1.46-1.13-2.99-1.51-4.57
			c-2.43-10.32-0.37-19.52,4.73-26.74c1.47-2.09,3.21-4,5.16-5.73c4.8-4.27,10.93-7.41,17.87-9.09
			c15.67-3.78,29.47,1.01,37.89,11.38l-29.82,31.76c2.03,0.36,5.25-0.17,7.62-0.74c7.11-1.71,11.1-5.47,14.58-9.6l11.92,10.73
			l3.62,3.26c-1.59,1.64-3.21,3.14-4.89,4.53C308.56,113.31,300.72,117.02,290.36,119.52z M403.07,153.72L378.69,150l-6.48-42.97
			l-9.17,23.71l-13.74-29.62h-0.15l-5.44,34.32l-22.88-3.98l3.21-19.15c0.86-0.81,1.72-1.63,2.56-2.5l7.4-7.64l-7.18-6.46
			l7.64-45.59h23.12l5.76,31.55l6.5-36.58h16.51l6.86,44.57c-8.74,9.95-12.96,23.3-10.04,35.54c2.25,9.46,8.09,17.11,16.42,21.54
			c0.84,0.45,1.71,0.85,2.6,1.22L403.07,153.72z M427.49,140.45c-5.92,2.23-11.77,2.69-17.01,1.66c-3.63-0.71-6.97-2.15-9.84-4.21
			c-4.59-3.3-7.99-8.22-9.46-14.4c-1.76-7.4-0.15-15.32,3.83-22.21c1.98-3.43,4.54-6.6,7.56-9.32c3.36-3.02,7.28-5.5,11.6-7.15
			c10.1-3.8,20.03-2.48,27.07,2.56c2.55,1.83,4.72,4.14,6.39,6.88c1.28,2.11,2.27,4.46,2.88,7.04c2.13,8.88-0.42,18.41-6.03,26.1
			c-2.39,3.27-5.33,6.21-8.7,8.62C433.23,137.81,430.46,139.32,427.49,140.45z M487.33,176.53l-16.93-5.06l-1.48-62.42l-8.52,48.15
			l-18.48-2.94l1.32-13.88c12.06-10.19,18.47-26.26,14.97-40.83c-1.54-6.46-4.85-12.07-9.55-16.36l1.55-16.35l-6.97-1.86l0.48-8.73
			l31.83,6.4l10.7,50.76l10.96-45.5l24.21,5.36L487.33,176.53z"/>
		<path class="st2" d="M436.17,95.96c0.19,0.73,0.29,1.49,0.26,2.27c-0.19,4.73-4.66,8.39-9.97,8.17c-5.31-0.22-9.47-4.22-9.27-8.95
			c0.18-4.44,4.13-7.94,9.01-8.17c-0.94-0.2-1.9-0.34-2.9-0.38c-8.88-0.36-16.14,5.93-16.46,13.78
			c-0.34,8.35,6.39,15.21,15.13,15.57c8.88,0.36,16.14-5.93,16.48-14.28C438.57,101.07,437.72,98.31,436.17,95.96z"/>
		<path class="st2" d="M166.6,105.52c0,4.73-4.31,8.57-9.63,8.57s-9.63-3.84-9.63-8.57c0-4.45,3.8-8.1,8.67-8.53
			c-0.94-0.16-1.91-0.26-2.91-0.26c-8.89,0-15.89,6.58-15.89,14.43c0,8.36,7,14.94,15.75,14.94c8.89,0,15.89-6.58,15.89-14.94
			c0-2.9-0.96-5.62-2.61-7.91C166.47,103.98,166.6,104.73,166.6,105.52z"/>
	</g>
	<path class="st2" d="M270.5,89.52c-2.21-4.01-1.76-9.14,1.49-12.71c3.14-3.45,7.97-4.43,12.08-2.86L270.5,89.52z M271.99,76.81
		c-3.25,3.57-3.7,8.7-1.49,12.71l13.57-15.57C279.96,72.38,275.13,73.36,271.99,76.81z M291.6,71.62
		c-6.96-6.33-17.74-5.83-24.07,1.13c-6.33,6.96-5.83,17.74,1.13,24.07c0.58,0.53,1.19,0.99,1.82,1.42l22.33-25.41
		C292.43,72.41,292.03,72.01,291.6,71.62z M270.5,89.52c-2.21-4.01-1.76-9.14,1.49-12.71c3.14-3.45,7.97-4.43,12.08-2.86
		L270.5,89.52z"/>
	<path class="st2" d="M103.31,86.76c-1.73-9.59-14.22-14.96-26.69-8.27l3.14,10.98l4.94,16.23l2.25,7.4
		C96.29,107.17,105.71,100.04,103.31,86.76z M90.89,101.4c-1.35-4.44-4.26-14.02-4.26-14.02c0.02,0.05-0.59-2.06-1.27-4.44
		c2.64-0.47,5.18-0.23,7.26,0.77c1.16,0.56,3.17,1.87,3.61,4.32C97.24,93.55,95.34,97.47,90.89,101.4z"/>
</g>
<g>
	<path d="M500.97,179.19h4.18v0.61h-1.74v4.54h-0.71v-4.54h-1.74V179.19z"/>
	<path d="M505.77,184.34v-5.16h1l1.48,4.36l1.47-4.36h0.99v5.16h-0.66v-3.04c0-0.1,0-0.28,0.01-0.52c0-0.24,0.01-0.5,0.01-0.78
		l-1.47,4.35h-0.69l-1.48-4.35v0.16c0,0.13,0,0.32,0.01,0.58c0.01,0.26,0.01,0.45,0.01,0.57v3.04H505.77z"/>
</g>
<g>
	<path d="M500.97,209.24h4.18v0.61h-1.74v4.54h-0.71v-4.54h-1.74V209.24z"/>
	<path d="M505.77,214.4v-5.16h1l1.48,4.36l1.47-4.36h0.99v5.16h-0.66v-3.04c0-0.11,0-0.28,0.01-0.52c0-0.24,0.01-0.5,0.01-0.78
		l-1.47,4.35h-0.69l-1.48-4.35v0.16c0,0.13,0,0.32,0.01,0.58c0.01,0.26,0.01,0.45,0.01,0.57v3.04H505.77z"/>
</g>
<path class="st3" d="M121.46,223.52c-0.6,3.13-1.13,6.47-1.37,9.1c-0.19,2.62,0.41,4.86,0.33,6.11c-0.16,1.26-1.61,2.27-2.57,2.5
	c-0.96,0.19-2.13,0.26-2.64-1.3c-0.26-0.76-0.32-2.36-0.15-4.36c0.21-2.34,0.48-4.07,0.73-5.43c-9.17,9.23-17.87,15-25.32,17.04
	c-6.7,1.49-9.32-2.22-8.9-8.56c1.29-11.07,10.94-27.56,18.11-36.97c1.63-2.06,4.27-4.2,5.58-4.73c0.98-0.36,2.01-0.28,2.41,0.96
	c0.27,0.68,0.36,1.78,0.49,2.73c0.04,1.12,0.15,2,0.12,2.37c-0.06,0.61-0.4,1.8-1.16,2.05c-0.34,0.09-0.72,0.19-1.2,0.18
	c-0.4-0.04-0.91-0.1-1.18-0.04c-0.34,0.1-1.23,0.4-2.38,1.78c-4.85,6.16-12.4,17.9-13.74,30.38c-0.29,4.23,1.35,5.38,4.18,4.77
	c4.33-1.23,14.11-8.03,20.67-15.56c0.44-0.43,0.71-0.79,1.09-1.28c-0.89,0.21-1.65,0.84-4.04,2.03c-2.4,1.27-3.43,2.26-5.14,2.66
	c-1.72,0.31-2.61-1.13-2.56-2.29c0.14-1.17,1.29-3.18,2.66-3.55c1.38-0.32,3.23-1.1,5.9-2.36c3.73-1.78,8.66-4.18,9.69-4.51
	c0.48-0.07,1.24,0.47,1.18,1.54C122.13,220.21,122.07,220.32,121.46,223.52z"/>
<path class="st3" d="M133.83,209.33c0.85-0.82,0.72-2.02,2.5-2.44c1.72-0.33,2.02,0.31,3.6,0.02c3.3-0.49,10.09,2.63,9.48,13.25
	c-1.23,10.57-9.38,16.3-15.14,17.58c-5.83,0.96-10.1-0.68-9.54-9.58C125.4,222.1,129.2,214.18,133.83,209.33z M141.98,222.81
	c0.39-5.56-1.33-10.51-3.24-10.37c-1.97,0.62-5.68,7.34-6.37,13.9c-0.4,5.45,1.03,7.03,3.16,6.73
	C138,232.48,141.37,228.45,141.98,222.81z"/>
<path class="st3" d="M152.47,212.43c-1.23,0.16-1.92-0.87-1.88-1.79c0.15-1.46,0.81-3.06,2.39-3.4c0.89-0.17,1.74-0.67,2.5-0.82
	c0.35-4.55-0.27-7.86,0.06-11.42c0.21-1.95,1.41-4.09,3.68-4.65c2.54-0.47,3.52,1.16,3.42,2.88c-0.13,1.72-0.13,7.42-0.42,11.02
	c0.9-0.33,1.36-0.92,2.46-1.12c1.44-0.19,2.31,0.92,2.26,2.68c-0.09,1.44-0.92,2.47-1.62,2.84c-1.06,0.54-2.28,0.88-2.98,1.14
	c-0.11,1.39-0.43,8.98-0.36,11.07c-0.05,2.17-0.29,9.39-0.38,10.54c-0.14,1.09-1.49,2.61-3.27,2.95c-2.19,0.3-3.72-0.17-3.88-1.39
	c-0.01-1.25,0.25-7.41,0.47-10.04c0.21-2.64,0.44-9.6,0.57-11.2C154.51,211.94,153.49,212.25,152.47,212.43z"/>
<path class="st3" d="M170.6,209.55c-1.23,0.13-1.92-0.95-1.87-1.89c0.15-1.5,0.82-3.14,2.39-3.45c0.89-0.15,1.74-0.65,2.49-0.78
	c0.36-4.71-0.24-8.21,0.11-11.95c0.22-2.05,1.42-4.28,3.69-4.78c2.54-0.4,3.5,1.37,3.4,3.17c-0.14,1.81-0.16,7.79-0.46,11.51
	c0.9-0.32,1.36-0.91,2.45-1.09c1.43-0.15,2.3,1.02,2.25,2.84c-0.09,1.49-0.93,2.53-1.62,2.88c-1.06,0.53-2.28,0.85-2.98,1.09
	c-0.11,1.43-0.44,9.17-0.38,11.28c-0.06,2.19-0.29,9.41-0.38,10.54c-0.14,1.08-1.48,2.55-3.26,2.84c-2.18,0.25-3.72-0.25-3.87-1.46
	c-0.02-1.24,0.25-7.37,0.46-10.02c0.21-2.65,0.46-9.76,0.58-11.39C172.65,209.11,171.63,209.39,170.6,209.55z"/>
<path class="st3" d="M199.92,224.02c-3.11,3.13-7.59,4.72-10.86,5.14c-3.27,0.34-4.95-0.23-4.9-2.47c0.38-3.98,3.33-7.65,7.25-11.22
	c3.18-3.09,6.72-6.12,7.68-6.98c0.59-0.52,1.18-0.87,1.66-1.01c-0.15-2.47-0.81-5.1-2.92-4.96c-1.91,0.3-4.6,2.37-5.83,3.76
	c-0.19,0.23-1.16,1.54-1.85,1.67c-1.16,0.09-2.8-0.85-2.7-2.87c0.12-1.14,0.61-1.94,1.27-2.62c2.17-1.97,8.65-6,11.1-6.44
	c2.12-0.24,5.78,0.29,7.49,11.3c0.77,4.44,0.35,10.45,0.24,11.71c-0.12,1.32-0.63,4.86-1.74,7.32c-0.4,0.77-2.38,1.28-3.13,1.37
	c-1.16,0.1-3.2,0.07-3.12-1.85C199.69,225.25,199.8,224.65,199.92,224.02z M193.02,219.67c-1.28,1.74-1.52,2.54-1.62,3.62
	c-0.06,0.95,0.51,1.37,1.53,1.28c3.07-0.43,5.04-2.97,5.74-3.47c1-0.62,1.92-1.15,1.79-1c0.18-2.1,0.41-4.83,0.45-7.6
	C198.89,214.03,195.12,216.96,193.02,219.67z"/>
<path class="st3" d="M233.18,216.71c-0.19,2.48,0.21,3.69,2.51,3.61c2.38-0.19,4.5-1.63,5.7-2.28c1.11-0.69,3.05-3.28,4.95-3.47
	c1.89-0.04,2.88,0.97,2.84,2.03c-0.73,3.97-10.41,7.66-15.44,8.15c-6.91,0.2-7.87-3.08-7.63-6.56
	c1.58-13.07,13.73-24.55,16.24-25.08c1.76-0.08,2.9,0.69,2.72,3.47c-0.19,2.06-0.77,4.09-2.63,4.69
	C237.02,203.16,233.7,211.94,233.18,216.71z"/>
<path class="st3" d="M266.06,220.06c-3.09,2.9-7.53,4.11-10.79,4.26c-3.25,0.07-4.92-0.61-4.87-2.85c0.38-3.95,3.31-7.48,7.22-10.84
	c3.17-2.93,6.69-5.8,7.65-6.62c0.59-0.49,1.17-0.81,1.65-0.91c-0.14-2.61-0.78-5.48-2.87-5.53c-1.9,0.13-4.58,2.09-5.8,3.46
	c-0.19,0.23-1.16,1.53-1.84,1.6c-1.15-0.01-2.77-1.17-2.66-3.33c0.12-1.21,0.62-2.03,1.28-2.7c2.17-1.92,8.61-5.62,11.05-5.82
	c2.1-0.03,5.71,1.08,7.36,12.75c0.75,4.72,0.32,10.83,0.21,12.11c-0.12,1.34-0.63,4.88-1.73,7.25c-0.4,0.74-2.36,1.09-3.11,1.11
	c-1.15,0-3.18-0.19-3.1-2.1C265.83,221.27,265.94,220.68,266.06,220.06z M259.21,215.08c-1.28,1.67-1.51,2.47-1.61,3.55
	c-0.05,0.95,0.5,1.42,1.52,1.42c3.05-0.19,5.01-2.6,5.7-3.05c0.99-0.54,1.91-1.01,1.78-0.87c0.18-2.13,0.42-4.91,0.47-7.78
	C265.06,209.76,261.31,212.48,259.21,215.08z"/>
<path class="st3" d="M278.07,200.98c-1.21-0.04-1.88-1.35-1.83-2.4c0.17-1.66,0.84-3.41,2.4-3.5c0.88-0.02,1.72-0.44,2.46-0.47
	c0.41-5.26-0.13-9.46,0.27-13.82c0.25-2.4,1.46-4.82,3.7-4.92c2.49,0.08,3.41,2.39,3.29,4.47c-0.16,2.08-0.27,8.97-0.6,13.09
	c0.89-0.21,1.35-0.79,2.43-0.81c1.41,0.07,2.25,1.53,2.19,3.52c-0.11,1.63-0.93,2.63-1.63,2.91c-1.05,0.41-2.26,0.57-2.95,0.74
	c-0.12,1.55-0.5,9.81-0.44,12.03c-0.07,2.29-0.31,9.6-0.39,10.72c-0.14,1.06-1.46,2.33-3.22,2.39c-2.16-0.04-3.67-0.73-3.83-1.94
	c-0.02-1.23,0.25-7.4,0.47-10.13c0.22-2.74,0.51-10.36,0.65-12.14C280.09,200.8,279.08,200.96,278.07,200.98z"/>
<path class="st3" d="M331.92,210.3c0.4-5.96-0.23-10.73-1.74-11.01c-2.77,0.1-7.54,6.7-8.1,11.12c-0.23,2.73-0.39,6.18-0.23,8.01
	c0.21,1.57,0.59,3.55,0.5,4.86c-0.16,1.36-1.25,1.95-2.53,1.98c-3.02-0.16-3.21-0.56-3.62-1.4c-0.5-1.93-1.02-12.44-1.08-15.73
	c0.12-6.74-0.52-21.88,0.25-31.94c0.74-7.79,2.36-10.38,5.86-10.22c2.07,0.24,3.07,2.52,2.89,5.29c-0.25,2.77-0.87,6.49-1.52,13.86
	c-0.4,5.07-0.24,11.58-0.5,16.55c1.09-3.37,5.77-8.95,11.69-8.75c4.06,0.53,6.17,6.96,5.3,18.51c-0.21,2.2-1.33,8.15-1.64,10.73
	c-0.18,1.72-1.16,3.18-4.32,3.05c-2.06-0.29-3.05-1.33-2.97-2.79C330.38,220.16,331.39,216.16,331.92,210.3z"/>
<path class="st3" d="M361.04,183.21c2-3.97,3.29-8.45,4.91-8.36c2.18,0.46,3.67,3.63,3.61,5.24c-0.13,0.96-1.42,4.56-3.08,7.66
	c-1.53,2.37-4.56,4.64-5.64,4.6c-1.53-0.22-2.84-1.29-2.74-3.16C358.34,187.33,360.29,184.58,361.04,183.21z"/>
<path class="st3" d="M365.77,217.06c-0.23,3.45,1.16,5.38,2.08,5.55c0.94,0.07,2.22-0.59,4.11-2.11c1.15-0.95,2.74-2.61,4.53-3.91
	c1.15-0.79,1.78-1.16,2.65-1.08c1.6,0.22,2.18,1.01,2.09,2.33c-0.38,2.42-4.8,4.92-7.43,6.4c-1.41,0.81-6.85,4.03-8.54,4.01
	c-4.38-0.69-5.93-6.24-5.64-10.67c0-0.02,0-0.04,0.01-0.07c-0.35,0.1-0.65,0.14-1.25,0.08c-0.59-0.1-1.12-1.22-1.08-1.99
	c0.19-1.96,0.73-2.33,2.76-3.1c0.04-0.51,0.09-1,0.13-1.51c0.91-8.99,4.78-15.87,6.67-15.91c7.18,1.13,11.27,7.61,11.22,10.6
	c-0.18,2.1-0.25,4.12-2.85,5.69c-2.08,1.17-8.19,3.83-9.37,4.59C365.84,216.35,365.81,216.69,365.77,217.06z M366.29,210.24
	c1.27-0.62,4.98-2.09,6.07-2.73c0.15-2.45-1.13-4.51-3.32-4.85C367.89,202.73,366.55,207.66,366.29,210.24z"/>
<path class="st3" d="M397.68,229.76c0.09-0.92,1.45-12.81,1.57-16.03c0.09-2.92-0.4-6.42-2.1-6.83c-1.82-0.1-6.02,4-6.59,8.82
	c-0.48,6.48,1,11.08,0.82,14.11c-0.22,1.32-2.73,1.65-3.67,1.55c-1.73-0.25-3.08-0.97-3.45-1.84c-0.46-2.01-0.59-8.35-0.6-10.57
	c0.09-7.01-0.66-11.55-0.46-14.58c0.32-2.45,2.84-3.73,3.85-3.65c2.4,0.38,3.69,1.16,3.75,6.7c2.11-3.45,5.63-6.6,9.05-6.17
	c2.39,0.47,4.49,2.32,5.16,5.56c2.43-2.85,6.93-4.15,10.34-3.59c3.28,0.84,4.63,6.28,4.63,10.23c-0.04,2.74-0.19,7.41-0.36,10.29
	c-0.17,2.87-0.01,6.02-0.14,7.8c-0.19,1.77-1.22,3.2-4.36,2.74c-3.11-0.59-3.41-2.08-3.28-3.77c0.33-3.77,1.18-10.85,1.48-14.28
	c0.25-2.99,0.52-7.17-1.57-7.71c-2.14-0.33-3.31,0.53-5.96,2.96c-0.04,0.31-0.18,7.98-0.32,10.64c-0.17,2.87-0.2,6.01-0.34,7.76
	c-0.18,1.74-1.03,3.13-4.11,2.8C398.24,232.24,397.57,231.42,397.68,229.76z"/>
<path class="st3" d="M448.09,237.02c-3.04,2.38-7.41,2.71-10.6,2.11c-3.18-0.69-4.81-1.86-4.75-4.22c0.4-4.12,3.26-6.96,7.09-9.3
	c3.09-2.09,6.53-3.87,7.45-4.39c0.57-0.31,1.14-0.45,1.61-0.43c-0.16-2.34-0.84-4.93-2.87-5.48c-1.87-0.34-4.46,0.69-5.64,1.61
	c-0.23,0.19-1.12,1.09-1.79,0.99c-1.12-0.27-2.73-1.72-2.64-3.58c0.11-1.04,0.59-1.62,1.22-2.04c2.09-1.12,8.32-2.55,10.73-2.1
	c2.05,0.5,5.65,1.84,7.39,12.49c0.78,4.35,0.37,10.21,0.26,11.47c-0.12,1.33-0.64,4.92-1.74,7.3c-0.4,0.74-2.32,0.66-3.06,0.51
	c-1.12-0.27-3.1-1-3.02-3.06C447.85,238.27,447.97,237.66,448.09,237.02z M441.39,230.32c-1.26,1.38-1.49,2.15-1.59,3.25
	c-0.06,0.98,0.49,1.61,1.48,1.83c3,0.51,4.92-1.56,5.6-1.87c0.98-0.33,1.9-0.61,1.75-0.48c0.18-2.12,0.41-4.79,0.44-7.45
	C447.11,226.46,443.44,228.19,441.39,230.32z"/>
<path class="st3" d="M464.27,196.71c1.5,0.52,3.42,1.94,3.42,3.63c-0.1,1.76-0.74,4.98-1.12,9.3c-0.23,3.6,0.68,15.82,0.61,19.7
	c-0.05,5.14,1.18,12.09,1.09,14.08c-0.23,1.97-1.59,2.55-3.65,2.08c-1.91-0.5-4.09-1.54-4.17-3.33c0.02-2.11-0.42-8.41-0.33-14.54
	c0.05-6.14-1.32-17.11-0.7-25.46C459.94,196.93,461.63,195.91,464.27,196.71z"/>
<path class="st3" d="M476.78,200.91c1.5,0.55,3.42,1.94,3.43,3.53c-0.09,1.65-0.71,4.66-1.08,8.78c-0.21,3.44,0.72,15.38,0.65,19.25
	c-0.04,5.12,1.18,12.2,1.08,14.23c-0.23,2.01-1.59,2.59-3.65,2.07c-1.91-0.54-4.09-1.65-4.16-3.48c0.02-2.16-0.41-8.57-0.32-14.67
	c0.05-6.1-1.35-16.83-0.77-24.73C472.46,200.93,474.15,200.06,476.78,200.91z"/>
<path class="st3" d="M297.71,215.31c-0.19,2.49,0.21,3.75,2.49,3.85c2.36-0.01,4.47-1.29,5.66-1.86c1.1-0.6,3.03-3.07,4.92-3.12
	c1.88,0.11,2.86,1.22,2.82,2.28c-0.73,3.96-10.34,6.92-15.35,7.01c-6.85-0.34-7.82-3.71-7.57-7.22
	c1.59-13.15,13.66-23.92,16.17-24.22c1.75,0.09,2.87,0.99,2.69,3.8c-0.2,2.09-0.77,4.09-2.62,4.54
	C301.53,201.82,298.23,210.52,297.71,215.31z"/>
<g>
	<g>
		<path class="st4" d="M94.28,236.45c-1.4,1.04-2.71,1.92-3.86,2.62c0.54-2.91,1.42-5.74,2.5-8.4c-0.03,0.18-0.06,0.35-0.08,0.52
			c-0.01,0.13-0.02,0.26-0.03,0.4C92.75,233.33,93.28,235.05,94.28,236.45z M120.49,217.53c-1.46-1.3-3.38-1.88-5.24-1.58
			c-0.29,0.05-0.57,0.11-0.85,0.21c-1.03,0.34-2.81,1.19-8.03,3.76l-2.13,1.05c-1.47,0.71-3.58,1.71-4.66,1.97
			c-0.06,0.02-0.13,0.03-0.19,0.05c-1.79,0.51-3.27,1.67-4.37,3.08c2.52-4.99,5.29-8.91,6.74-10.82c0.93-0.06,1.66-0.26,2.05-0.37
			c0.1-0.03,0.19-0.06,0.29-0.09c3.2-1.09,4.59-4.19,4.83-6.72c0.01-0.07,0.01-0.14,0.02-0.2c0.03-0.58-0.01-1.12-0.06-1.75
			c-0.03-0.35-0.06-0.74-0.08-1.15c-0.01-0.16-0.03-0.34-0.05-0.5l-0.06-0.43c-0.14-1.02-0.3-2.17-0.72-3.3
			c-0.64-1.86-1.92-3.33-3.61-4.13c-1.78-0.85-3.89-0.89-5.92-0.11c-0.05,0.02-0.1,0.04-0.15,0.06c-2.6,1.08-5.9,4.11-7.68,6.42
			c-5.81,7.79-17.08,25.89-18.49,39.2c-0.01,0.09-0.02,0.19-0.02,0.28c-0.37,6.67,2.07,10.18,4.17,11.94c2,1.67,5.6,3.39,11.41,2.03
			c0.09-0.02,0.17-0.04,0.26-0.07c5.65-1.61,11.62-4.94,17.83-9.93c1.25,2.55,4.07,4.87,8.57,3.92c0.07-0.01,0.14-0.03,0.21-0.05
			c2.96-0.74,6.19-3.44,6.63-7.17c0.02-0.13,0.03-0.25,0.03-0.38c0.05-0.99-0.07-1.91-0.19-2.89c-0.13-1-0.26-2.03-0.19-3.04
			c0.17-2.09,0.59-5.06,1.17-8.28c0-0.01,0.29-1.59,0.29-1.59c0.31-1.71,0.41-2.23,0.52-3.63c0-0.06,0.01-0.13,0.01-0.19
			C122.89,220.96,122.05,218.92,120.49,217.53z M107.89,200.49c0.03,0.08,0.05,0.16,0.08,0.24c0.01,0.03,0.03,0.06,0.04,0.09
			C107.97,200.71,107.93,200.6,107.89,200.49z"/>
		<path class="st4" d="M143.95,209.03c-2.93-2.62-6.87-3.92-10.29-3.39c-0.69-0.11-1.97-0.31-3.79,0.06
			c-0.08,0.02-0.15,0.03-0.23,0.05c-3.5,0.86-4.83,3.27-5.34,4.23c-5.2,5.67-9.29,14.48-9.98,21.55c-0.01,0.08-0.01,0.16-0.02,0.23
			c-0.3,5.67,1.06,9.9,4.05,12.55c2.85,2.52,6.83,3.35,11.85,2.47c0.1-0.02,0.2-0.04,0.29-0.06c8.17-1.9,17.56-9.64,18.89-22.17
			c0.01-0.11,0.02-0.22,0.02-0.33C149.81,216.06,146.66,211.45,143.95,209.03z"/>
		<path class="st4" d="M163.81,203.39c-0.55-0.48-1.16-0.86-1.8-1.16c0.01-0.43,0.01-0.86,0.02-1.26c0.02-1.3,0.04-2.64,0.07-3.17
			c0.12-2.77-0.88-5.23-2.75-6.85c-1.9-1.63-4.45-2.24-7.19-1.71c-0.11,0.02-0.22,0.05-0.32,0.07c-4.2,1.08-7.21,4.77-7.67,9.39
			c-0.18,2.14-0.08,4.04,0,5.87c0.03,0.67,0.06,1.34,0.08,2c-2.69,1.35-4.45,4.07-4.78,7.54c-0.01,0.1-0.02,0.21-0.02,0.31
			c-0.08,2.13,0.81,4.25,2.39,5.67c0.65,0.58,1.4,1.03,2.2,1.33c-0.06,1.87-0.14,3.76-0.21,4.79c-0.19,2.67-0.4,8.89-0.37,10.34
			c0,0.22,0.02,0.44,0.05,0.66c0.26,1.83,1.22,3.46,2.72,4.57c1.3,0.97,3.63,2,7.38,1.44c0.08-0.01,0.17-0.03,0.25-0.04
			c3.89-0.77,7.15-4.06,7.58-7.67c0.01-0.11,0.02-0.21,0.03-0.32c0.08-1.34,0.25-8.67,0.27-10.59c0-0.11,0-0.21,0-0.32
			c-0.05-1.08,0.02-4.26,0.1-6.83c0.03-0.02,0.07-0.03,0.1-0.05c2.59-1.39,4.34-4.28,4.5-7.4c0-0.07,0.01-0.14,0.01-0.21
			C166.48,207.21,165.55,204.93,163.81,203.39z"/>
		<path class="st4" d="M181.57,200.5c-0.55-0.49-1.16-0.89-1.8-1.19c0.01-0.54,0.02-1.07,0.03-1.56c0.02-1.46,0.05-2.83,0.08-3.41
			c0.13-2.84-0.87-5.37-2.75-7.03c-1.85-1.64-4.35-2.3-7.03-1.85c-0.11,0.02-0.23,0.04-0.34,0.07c-4.27,1-7.33,4.75-7.8,9.56
			c-0.18,2.21-0.1,4.2-0.02,6.12c0.03,0.72,0.06,1.46,0.08,2.21c-2.7,1.34-4.47,4.08-4.79,7.61c-0.01,0.1-0.02,0.2-0.02,0.29
			c-0.08,2.14,0.8,4.27,2.35,5.7c0.65,0.6,1.41,1.06,2.21,1.37c-0.07,1.97-0.15,3.99-0.22,5.07c-0.19,2.71-0.4,8.93-0.37,10.34
			c0,0.21,0.02,0.43,0.05,0.64c0.5,3.6,3.78,6.88,9.96,6.1c0.08-0.01,0.17-0.02,0.25-0.04c3.95-0.68,7.26-3.95,7.7-7.59
			c0.01-0.11,0.02-0.21,0.03-0.32c0.08-1.31,0.24-8.65,0.27-10.59c0-0.11,0-0.21,0-0.32c-0.05-1.1,0.03-4.37,0.11-7
			c0.02-0.01,0.04-0.02,0.05-0.02c2.62-1.38,4.39-4.3,4.56-7.46c0-0.07,0.01-0.13,0.01-0.2
			C184.22,204.38,183.29,202.06,181.57,200.5z"/>
		<path class="st4" d="M205.94,209.83c-2.3-13.88-8.64-16.08-13.55-15.48c-0.11,0.01-0.22,0.03-0.33,0.05
			c-4.18,0.78-11.49,5.88-13.55,7.79c-0.08,0.08-0.16,0.15-0.24,0.23c-1.6,1.68-2.52,3.65-2.73,5.88c-0.01,0.1-0.02,0.2-0.02,0.3
			c-0.09,2.44,0.8,4.68,2.52,6.31c0.56,0.53,1.19,0.96,1.86,1.31c-3.24,3.22-6.89,7.77-7.37,13.33c-0.01,0.13-0.02,0.27-0.02,0.4
			c-0.03,2.38,0.84,4.49,2.46,5.95c2.58,2.34,6.09,2.25,8.51,1.97c0.05-0.01,0.09-0.01,0.14-0.02c1.22-0.17,4.32-0.74,7.71-2.41
			c1.48,0.79,3.29,1.1,5.4,0.89c0.05,0,0.1-0.01,0.15-0.02c1.27-0.16,5.56-0.95,7.29-4.35c0.04-0.09,0.09-0.18,0.13-0.27
			c1.62-3.69,2.04-8.45,2.08-8.98C206.47,221.45,206.88,214.93,205.94,209.83z M188.42,223.35
			C188.42,223.35,188.42,223.35,188.42,223.35c0,0.02,0,0.05,0,0.08C188.42,223.41,188.42,223.38,188.42,223.35z M188.47,224.15
			c0.01,0.04,0.02,0.09,0.02,0.13h0C188.48,224.24,188.48,224.2,188.47,224.15z"/>
		<path class="st4" d="M245.03,214.35c-1.59-1.59-3.86-2.42-6.37-2.34c-0.14,0-0.29,0.02-0.43,0.03c-2.09,0.23-3.76,1.25-5.07,2.32
			c1.05-2.32,2.39-4.21,3.46-4.6c2.58-0.86,5.76-3.19,6.28-9.4c0-0.05,0.01-0.11,0.01-0.16c0.16-2.96-0.61-5.31-2.3-7
			c-1.1-1.09-3.06-2.36-6.22-2.18c-0.3,0.02-0.6,0.06-0.89,0.12c-5.1,1.14-18.3,14.68-19.94,29.52c-0.01,0.09-0.02,0.19-0.02,0.28
			c-0.22,3.74,0.74,6.72,2.86,8.88c2.36,2.41,5.77,3.49,10.41,3.3c0.12,0,0.25-0.01,0.37-0.03c4.82-0.51,18.48-4.48,19.9-12.69
			c0.04-0.26,0.07-0.51,0.08-0.77C247.22,217.66,246.47,215.78,245.03,214.35z"/>
		<path class="st4" d="M270.72,205.51c-1.74-11.44-6.09-17.19-12.93-17.02c-0.12,0-0.25,0.01-0.38,0.02
			c-4.32,0.41-11.83,5.3-13.95,7.21c-0.09,0.08-0.18,0.17-0.26,0.25c-1.62,1.67-2.55,3.69-2.76,6c-0.01,0.09-0.01,0.18-0.02,0.28
			c-0.1,2.46,0.76,4.75,2.4,6.45c0.67,0.7,1.46,1.26,2.29,1.67c-3.34,3.1-7.23,7.61-7.73,13.38c-0.01,0.13-0.02,0.27-0.02,0.4
			c-0.04,2.93,1.23,4.8,2.3,5.85c2.43,2.38,5.84,2.56,8.19,2.49c0.05,0,0.1,0,0.15-0.01c1.22-0.07,4.31-0.39,7.7-1.78
			c1.43,0.91,3.21,1.35,5.32,1.32c0.06,0,0.11,0,0.17,0c1.33-0.06,5.82-0.53,7.68-4.07c0.05-0.09,0.09-0.18,0.13-0.27
			c1.6-3.5,2.03-8.08,2.1-8.96C271.21,217.43,271.63,210.85,270.72,205.51z M258.63,213.35c-0.11,0.01-0.22,0.02-0.32,0.03
			c0.01-0.01,0.02-0.02,0.03-0.03C258.44,213.34,258.53,213.35,258.63,213.35z M253.2,218.54c0,0.04,0,0.07,0,0.11
			C253.2,218.61,253.2,218.57,253.2,218.54z M253.23,219.51c0-0.01,0-0.02,0-0.03C253.23,219.49,253.23,219.5,253.23,219.51z"/>
		<path class="st4" d="M284.97,190.91c0.03-1.02,0.05-2.02,0.08-2.95c0.04-1.71,0.08-3.33,0.13-4.04c0.15-2.94-0.77-5.65-2.52-7.52
			c-1.58-1.69-3.76-2.65-6.14-2.7c-0.14,0-0.28,0-0.41,0.01c-4.7,0.26-8.23,4.21-8.77,9.84c-0.2,2.49-0.14,4.8-0.09,7.03
			c0.02,0.89,0.04,1.79,0.05,2.71c-2.31,1.08-4.43,3.48-4.81,7.77c-0.01,0.09-0.01,0.18-0.02,0.27c-0.09,2.14,0.69,4.25,2.14,5.79
			c0.68,0.73,1.49,1.29,2.37,1.68c-0.09,2.37-0.19,5.02-0.28,6.31c-0.2,2.83-0.41,9.01-0.37,10.45c0.01,0.21,0.02,0.42,0.05,0.63
			c0.42,3.03,3.09,6.58,9.2,6.62c0.09,0,0.18,0,0.26,0c4.22-0.17,7.9-3.34,8.38-7.21c0.01-0.11,0.02-0.22,0.03-0.33
			c0.08-1.33,0.25-8.9,0.29-10.75c0-0.1,0-0.2,0-0.3c-0.04-1.15,0.05-4.61,0.14-7.43c2.64-1.3,4.42-4.16,4.61-7.46
			c0-0.07,0.01-0.14,0.01-0.21C289.35,195.37,287.65,192.32,284.97,190.91z"/>
		<path class="st4" d="M302.25,210.99c-0.15-0.01-0.3-0.01-0.45,0c-2.52,0.08-4.5,1.37-5.92,2.53c1.07-2.7,2.58-4.9,3.65-5.2
			c-0.04,0.01-0.09,0.02-0.13,0.04c2.25-0.56,6.1-2.53,6.67-9.36c0-0.05,0.01-0.1,0.01-0.16c0.16-2.88-0.55-5.22-2.12-6.94
			c-1.01-1.11-2.83-2.45-5.83-2.57c-0.31-0.01-0.63,0-0.94,0.04c-5.9,0.77-18.77,14.28-20.36,28.77c-0.01,0.09-0.02,0.19-0.02,0.28
			c-0.08,1.37-0.32,5.53,2.72,8.88c2.22,2.45,5.61,3.78,10.07,3.95c0.13,0,0.25,0.01,0.38,0c4.9-0.14,18.79-3.16,20.25-11.6
			c0.04-0.25,0.07-0.51,0.08-0.77C310.41,214.61,306.96,211.22,302.25,210.99z"/>
		<path class="st4" d="M324.98,189.94c-0.17-0.02-0.35-0.03-0.52-0.04c-2.08-0.05-4.02,0.35-5.8,1.05c0.03-0.94,0.06-1.85,0.12-2.69
			c0.34-4.41,0.68-7.42,0.96-9.83c0.16-1.4,0.3-2.6,0.38-3.69c0-0.05,0.01-0.1,0.01-0.14c0.32-5.93-2.9-10.43-7.82-10.94
			c-0.12-0.01-0.25-0.02-0.37-0.03c-10.03-0.36-10.98,10.89-11.33,15.12c-0.46,7-0.25,16.01-0.08,23.26
			c0.08,3.43,0.15,6.4,0.14,8.47c0,0.07,0,0.14,0,0.21c0,0.13,0.55,13.54,1.4,16.68c0.1,0.35,0.23,0.69,0.39,1.02
			c1.9,3.8,5.12,4.25,8.26,4.38c0.13,0.01,0.27,0.01,0.4,0c2.66-0.08,4.91-1.28,6.31-3.15c1.26,1.46,3.18,2.57,5.86,2.91
			c0.18,0.02,0.36,0.04,0.54,0.04c5.51,0.17,9.39-2.98,9.87-8.02c0.11-1,0.4-2.91,0.69-4.75c0.36-2.32,0.7-4.51,0.81-5.83
			C336.42,195.25,330.32,190.58,324.98,189.94z"/>
		<path class="st4" d="M356.74,171.98c-0.28-0.06-0.56-0.09-0.85-0.1c-4.96-0.22-6.95,4.48-8.55,8.25c-0.43,1-0.87,2.04-1.33,2.99
			c-0.12,0.21-0.31,0.54-0.51,0.87c-1.41,2.37-2.6,4.53-2.88,6.89c-0.02,0.14-0.03,0.28-0.03,0.42c-0.18,4.47,2.98,8.16,7.51,8.76
			c0.21,0.03,0.41,0.04,0.62,0.05c4.62,0.09,9.06-5.26,10.24-7.14c0.08-0.13,0.16-0.26,0.23-0.39c1.49-2.85,3.27-7.27,3.53-9.43
			c0.02-0.18,0.03-0.36,0.04-0.54C364.85,178.95,362.04,173.05,356.74,171.98z"/>
		<path class="st4" d="M372.51,212.49c0.62-1.67,0.74-3.24,0.83-4.35l0.02-0.22c0.01-0.12,0.01-0.25,0.02-0.37
			c0.04-5.61-5.96-14.32-15.81-15.77c-0.33-0.05-0.66-0.07-0.99-0.06c-6.75,0.22-10.52,11.39-11.53,19.27
			c-1.53,1.22-2.68,3.01-2.94,5.98c-0.01,0.08-0.01,0.15-0.02,0.23c-0.09,2.11,0.8,4.48,2.48,6.03c0.82,5.7,4,11.07,10.16,11.98
			c0.26,0.04,0.52,0.06,0.78,0.06c2.29,0.01,4.9-1.09,10.72-4.53l0.4-0.24c3.63-2.1,9.15-5.29,9.89-10.31
			c0.02-0.17,0.04-0.34,0.05-0.51C376.75,216.45,375.18,213.82,372.51,212.49z M348.59,213.94c-0.1,0.02-0.2,0.04-0.29,0.07
			C348.39,213.98,348.49,213.96,348.59,213.94z"/>
		<path class="st4" d="M414.5,214.72c-0.06-6.13-2.41-13.76-8.83-15.35c-0.15-0.04-0.31-0.07-0.47-0.09
			c-3.05-0.48-6.33,0.01-9.23,1.24c-1.6-1.52-3.58-2.58-5.83-3c-0.12-0.02-0.25-0.04-0.37-0.06c-2.68-0.31-5.17,0.42-7.37,1.73
			c-1.21-1.02-2.82-1.78-5-2.1c-0.13-0.02-0.27-0.03-0.4-0.04c-4.03-0.3-9,3.26-9.62,8.46c-0.01,0.11-0.02,0.22-0.03,0.33
			c-0.1,1.75,0.04,3.68,0.21,5.92c0.18,2.44,0.39,5.21,0.38,8.67c0.02,1.54,0.18,8.82,0.85,11.64c0.08,0.31,0.18,0.62,0.31,0.92
			c1.17,2.7,3.98,4.54,7.72,5.04c0.08,0.01,0.16,0.02,0.24,0.03c2.3,0.21,4.81-0.35,6.68-1.68c1.2,1.28,3.09,2.33,6.06,2.79
			c0.09,0.01,0.19,0.03,0.29,0.04c2.88,0.29,5.26-0.33,7.09-1.84c0.06-0.05,0.12-0.11,0.18-0.16c1.32,1.71,3.39,2.88,6.12,3.37
			c0.08,0.01,0.15,0.03,0.23,0.04c2.97,0.4,5.45-0.17,7.39-1.7c1.25-0.98,2.79-2.82,3.1-5.96c0.01-0.06,0.01-0.12,0.01-0.18
			c0.07-1.03,0.05-2.23,0.04-3.61c-0.02-1.31-0.03-2.8,0.03-4.12C414.39,222.07,414.49,217.37,414.5,214.72z"/>
		<path class="st4" d="M449.09,222.35c-1.7-9.79-5.37-15.07-11.53-16.51c-0.1-0.02-0.19-0.04-0.29-0.06
			c-3.92-0.7-11.26,1.19-14.12,2.76c-0.13,0.07-0.27,0.15-0.39,0.24c-2.13,1.41-3.39,3.52-3.62,6.1c-0.01,0.1-0.02,0.21-0.02,0.32
			c-0.12,3.49,1.87,6.4,4.36,7.97c-2.8,2.08-6.75,5.9-7.27,11.94c-0.01,0.13-0.02,0.26-0.02,0.39c-0.05,2.87,1.08,7.93,9.11,9.58
			c0.05,0.01,0.1,0.02,0.15,0.03c2.63,0.46,5.27,0.41,7.73-0.11c1.25,1.28,2.96,2.23,5.03,2.7c0.06,0.01,0.11,0.02,0.17,0.04
			c2.98,0.58,7.11,0.04,8.91-3.36c0.05-0.1,0.1-0.21,0.15-0.31c1.62-3.58,2.06-8.45,2.1-8.99
			C449.67,233.28,450.01,227.22,449.09,222.35z M436.02,228.24c0.51-0.12,1.03-0.16,1.55-0.13v0
			C437.04,228.1,436.51,228.15,436.02,228.24z M431.75,233.48c0,0.04,0,0.09,0,0.13C431.75,233.57,431.75,233.52,431.75,233.48z"/>
		<path class="st4" d="M461.66,238.41c-0.33-2.69-0.74-6.03-0.75-8.64c0.01-1.82-0.17-5.04-0.39-8.76
			c-0.22-3.78-0.49-8.48-0.41-10.18c0.17-2.18,0.42-4.09,0.63-5.64c0.19-1.44,0.34-2.59,0.39-3.58c0.01-0.12,0.01-0.23,0.01-0.35
			c-0.06-4.35-3.64-7.49-7.15-8.68c-0.07-0.02-0.15-0.05-0.22-0.07c-3.53-1.02-6-0.06-7.45,0.93c-3.31,2.26-4.04,6.38-4.3,9.28
			c0,0.05-0.01,0.1-0.01,0.14c-0.34,5.44,0.1,11.65,0.5,17.14c0.22,3.11,0.43,6.06,0.44,8.16c-0.02,3.97,0.18,7.97,0.33,10.9
			c0.07,1.47,0.14,2.73,0.14,3.33c0,0.1,0,0.2,0.01,0.3c0.1,1.89,1.11,6.48,8.29,8.28c0.06,0.01,0.11,0.03,0.17,0.04
			c3.45,0.75,5.75-0.24,7.08-1.2c1.78-1.29,2.89-3.31,3.14-5.69c0.01-0.12,0.02-0.24,0.03-0.36
			C462.16,242.57,461.99,241.11,461.66,238.41z"/>
		<path class="st4" d="M474.03,241.33c-0.32-2.7-0.73-6.07-0.73-8.64c0.02-1.85-0.19-5.25-0.41-8.84c-0.22-3.6-0.49-8.06-0.42-9.65
			c0.17-2.05,0.41-3.84,0.6-5.28c0.19-1.38,0.33-2.47,0.37-3.43c0.01-0.12,0.01-0.24,0-0.35c-0.08-4.18-3.61-7.29-7.08-8.52
			c-0.07-0.02-0.14-0.05-0.21-0.07c-3.6-1.11-6.1-0.17-7.57,0.82c-3.27,2.19-3.97,6.13-4.22,8.89c0,0.05-0.01,0.09-0.01,0.14
			c-0.32,5.11,0.13,11.1,0.53,16.38c0.24,3.13,0.46,6.08,0.46,8.21c-0.02,3.93,0.18,7.98,0.32,10.94c0.07,1.5,0.14,2.8,0.14,3.43
			c0,0.09,0,0.18,0.01,0.27c0.09,1.89,1.07,6.48,8.17,8.42c0.05,0.02,0.11,0.03,0.17,0.04c3.44,0.83,5.77-0.14,7.12-1.09
			c1.82-1.28,2.96-3.33,3.21-5.77c0.01-0.12,0.02-0.24,0.03-0.36C474.54,245.64,474.36,244.04,474.03,241.33z"/>
	</g>
	<path class="st3" d="M116.55,227.55c-0.56,3.07-1.04,6.35-1.25,8.93c-0.16,2.56,0.45,4.76,0.38,5.99c-0.15,1.24-1.56,2.24-2.5,2.47
		c-0.94,0.2-2.08,0.28-2.6-1.24c-0.26-0.74-0.33-2.31-0.19-4.28c0.18-2.29,0.43-3.99,0.66-5.33c-8.89,9.14-17.36,14.88-24.64,16.95
		c-6.55,1.53-9.15-2.08-8.81-8.3c1.15-10.86,10.44-27.12,17.37-36.41c1.57-2.04,4.14-4.16,5.42-4.69c0.96-0.36,1.97-0.3,2.37,0.91
		c0.27,0.67,0.38,1.74,0.51,2.67c0.05,1.1,0.17,1.96,0.15,2.32c-0.06,0.6-0.38,1.77-1.11,2.02c-0.33,0.09-0.71,0.2-1.17,0.19
		c-0.39-0.03-0.89-0.09-1.15-0.02c-0.33,0.1-1.2,0.41-2.32,1.77c-4.69,6.08-11.97,17.67-13.16,29.91c-0.24,4.15,1.38,5.25,4.14,4.63
		c4.23-1.25,13.74-8.01,20.1-15.45c0.43-0.43,0.69-0.78,1.06-1.26c-0.87,0.21-1.6,0.84-3.94,2.03c-2.33,1.27-3.33,2.25-5.01,2.66
		c-1.68,0.32-2.57-1.08-2.53-2.22c0.13-1.15,1.23-3.13,2.57-3.51c1.35-0.33,3.15-1.11,5.76-2.37c3.64-1.78,8.44-4.19,9.45-4.52
		c0.47-0.08,1.22,0.45,1.17,1.5C117.18,224.3,117.12,224.41,116.55,227.55z"/>
	<path class="st3" d="M128.53,213.53c0.83-0.81,0.68-1.99,2.43-2.42c1.68-0.34,1.99,0.28,3.53-0.02c3.23-0.51,9.91,2.47,9.43,12.89
		c-1.1,10.37-9.03,16.07-14.66,17.38c-5.71,1-9.91-0.57-9.44-9.29C120.39,226.12,124.04,218.33,128.53,213.53z M136.66,226.65
		c0.32-5.46-1.41-10.29-3.28-10.12c-1.93,0.62-5.49,7.25-6.1,13.68c-0.34,5.34,1.08,6.88,3.16,6.56
		C132.85,236.16,136.11,232.18,136.66,226.65z"/>
	<path class="st3" d="M146.82,216.37c-1.21,0.17-1.89-0.83-1.86-1.73c0.13-1.43,0.77-3.01,2.31-3.36c0.87-0.18,1.7-0.68,2.44-0.83
		c0.3-4.46-0.34-7.7-0.06-11.19c0.19-1.91,1.34-4.02,3.55-4.59c2.49-0.48,3.46,1.11,3.38,2.79c-0.11,1.69-0.05,7.28-0.3,10.8
		c0.88-0.33,1.32-0.91,2.4-1.12c1.41-0.2,2.27,0.88,2.24,2.6c-0.07,1.41-0.88,2.43-1.56,2.8c-1.04,0.54-2.23,0.89-2.91,1.15
		c-0.09,1.36-0.33,8.81-0.24,10.85c-0.03,2.13-0.19,9.21-0.26,10.33c-0.13,1.07-1.43,2.58-3.17,2.92c-2.14,0.32-3.65-0.13-3.81-1.32
		c-0.02-1.23,0.17-7.26,0.36-9.85c0.18-2.59,0.34-9.42,0.44-10.98C148.82,215.88,147.83,216.19,146.82,216.37z"/>
	<path class="st3" d="M164.57,213.37c-1.2,0.14-1.89-0.91-1.85-1.83c0.14-1.48,0.77-3.09,2.31-3.41c0.87-0.16,1.7-0.65,2.43-0.79
		c0.31-4.62-0.32-8.04-0.02-11.71c0.2-2.01,1.35-4.21,3.56-4.73c2.48-0.42,3.44,1.3,3.36,3.07c-0.12,1.77-0.08,7.63-0.34,11.28
		c0.88-0.32,1.32-0.91,2.39-1.1c1.4-0.16,2.26,0.98,2.23,2.76c-0.08,1.46-0.88,2.48-1.56,2.84c-1.03,0.53-2.23,0.85-2.91,1.1
		c-0.09,1.4-0.34,8.99-0.25,11.06c-0.03,2.15-0.19,9.22-0.26,10.33c-0.13,1.06-1.43,2.52-3.16,2.82c-2.14,0.27-3.64-0.21-3.81-1.39
		c-0.03-1.21,0.17-7.23,0.35-9.83c0.18-2.6,0.35-9.57,0.46-11.17C166.56,212.92,165.57,213.21,164.57,213.37z"/>
	<path class="st3" d="M193.44,227.26c-3.02,3.1-7.39,4.7-10.59,5.15c-3.2,0.36-4.86-0.17-4.83-2.37c0.34-3.9,3.18-7.53,6.99-11.07
		c3.09-3.06,6.52-6.06,7.45-6.92c0.57-0.51,1.15-0.86,1.62-1c-0.17-2.42-0.84-4.99-2.91-4.83c-1.87,0.31-4.49,2.37-5.67,3.75
		c-0.18,0.23-1.12,1.52-1.79,1.65c-1.13,0.1-2.75-0.81-2.68-2.79c0.1-1.11,0.58-1.91,1.22-2.58c2.11-1.95,8.41-5.97,10.82-6.42
		c2.07-0.26,5.67,0.23,7.45,11c0.8,4.35,0.45,10.24,0.36,11.47c-0.1,1.3-0.57,4.77-1.63,7.19c-0.39,0.76-2.32,1.28-3.06,1.37
		c-1.13,0.11-3.13,0.1-3.08-1.78C193.22,228.47,193.33,227.88,193.44,227.26z M186.63,223.06c-1.24,1.72-1.46,2.51-1.55,3.57
		c-0.05,0.93,0.51,1.34,1.51,1.24c3-0.45,4.91-2.97,5.59-3.46c0.97-0.61,1.87-1.14,1.74-1c0.16-2.06,0.35-4.74,0.37-7.45
		C192.33,217.47,188.67,220.38,186.63,223.06z"/>
	<path class="st3" d="M225.97,219.75c-0.16,2.43,0.24,3.61,2.5,3.52c2.33-0.21,4.4-1.64,5.56-2.29c1.08-0.68,2.96-3.25,4.82-3.45
		c1.86-0.06,2.84,0.92,2.8,1.96c-0.67,3.9-10.13,7.62-15.05,8.14c-6.77,0.27-7.74-2.94-7.54-6.35c1.41-12.82,13.21-24.2,15.66-24.74
		c1.73-0.1,2.85,0.64,2.7,3.37c-0.17,2.02-0.72,4.02-2.53,4.62C229.59,206.43,226.42,215.08,225.97,219.75z"/>
	<path class="st3" d="M258.22,222.7c-3,2.87-7.34,4.1-10.53,4.29c-3.18,0.1-4.83-0.55-4.8-2.75c0.33-3.88,3.17-7.36,6.97-10.7
		c3.07-2.91,6.5-5.75,7.43-6.57c0.57-0.49,1.14-0.8,1.61-0.91c-0.16-2.56-0.82-5.36-2.87-5.39c-1.86,0.15-4.47,2.09-5.65,3.45
		c-0.19,0.23-1.12,1.51-1.79,1.59c-1.12,0.01-2.73-1.12-2.64-3.23c0.11-1.19,0.59-2,1.23-2.66c2.1-1.9,8.38-5.59,10.77-5.81
		c2.06-0.05,5.61,1,7.34,12.42c0.78,4.61,0.42,10.61,0.33,11.86c-0.11,1.31-0.56,4.79-1.63,7.12c-0.38,0.73-2.31,1.09-3.04,1.12
		c-1.12,0.02-3.11-0.15-3.06-2.02C258,223.9,258.11,223.32,258.22,222.7z M251.46,217.89c-1.24,1.65-1.46,2.43-1.55,3.5
		c-0.04,0.94,0.51,1.39,1.5,1.37c2.99-0.21,4.89-2.6,5.56-3.04c0.97-0.54,1.87-1.01,1.73-0.87c0.16-2.09,0.36-4.82,0.38-7.62
		C257.13,212.62,253.48,215.32,251.46,217.89z"/>
	<path class="st3" d="M269.79,203.89c-1.19-0.03-1.86-1.3-1.81-2.33c0.15-1.63,0.79-3.35,2.31-3.45c0.86-0.03,1.68-0.45,2.41-0.48
		c0.35-5.15-0.22-9.27,0.12-13.55c0.23-2.35,1.39-4.74,3.58-4.86c2.44,0.05,3.37,2.3,3.27,4.35c-0.13,2.04-0.17,8.79-0.45,12.83
		c0.87-0.21,1.31-0.79,2.37-0.82c1.38,0.05,2.22,1.48,2.18,3.43c-0.09,1.6-0.89,2.58-1.56,2.87c-1.03,0.42-2.21,0.58-2.88,0.75
		c-0.1,1.52-0.39,9.61-0.31,11.79c-0.04,2.24-0.21,9.41-0.28,10.51c-0.13,1.04-1.41,2.3-3.13,2.37c-2.12-0.01-3.61-0.68-3.77-1.86
		c-0.03-1.21,0.17-7.25,0.36-9.94c0.19-2.69,0.4-10.16,0.51-11.9C271.77,203.69,270.78,203.86,269.79,203.89z"/>
	<path class="st3" d="M322.65,212.48c0.33-5.84-0.34-10.51-1.82-10.77c-2.72,0.12-7.32,6.64-7.82,10.98
		c-0.2,2.68-0.32,6.06-0.14,7.85c0.22,1.53,0.62,3.48,0.54,4.76c-0.14,1.34-1.2,1.92-2.46,1.96c-2.96-0.12-3.15-0.52-3.56-1.33
		c-0.51-1.88-1.12-12.18-1.22-15.41c0.05-6.6-0.73-21.43-0.08-31.3c0.64-7.64,2.21-10.2,5.64-10.07c2.03,0.21,3.03,2.44,2.88,5.15
		c-0.22,2.71-0.79,6.37-1.35,13.59c-0.34,4.98-0.12,11.35-0.32,16.22c1.04-3.32,5.56-8.83,11.37-8.69
		c3.98,0.48,6.11,6.76,5.38,18.08c-0.19,2.16-1.22,8-1.5,10.53c-0.16,1.69-1.11,3.12-4.21,3.03c-2.03-0.26-3-1.27-2.94-2.7
		C321.25,222.15,322.19,218.23,322.65,212.48z"/>
	<path class="st3" d="M350.92,185.63c1.92-3.91,3.14-8.31,4.73-8.24c2.14,0.43,3.63,3.52,3.59,5.1c-0.12,0.94-1.34,4.48-2.94,7.54
		c-1.48,2.34-4.42,4.59-5.48,4.57c-1.5-0.2-2.79-1.24-2.72-3.07C348.31,189.7,350.2,186.98,350.92,185.63z"/>
	<path class="st3" d="M355.9,218.77c-0.19,3.39,1.19,5.26,2.1,5.42c0.92,0.06,2.17-0.6,4.01-2.11c1.12-0.95,2.66-2.58,4.4-3.87
		c1.12-0.78,1.73-1.16,2.58-1.08c1.57,0.2,2.15,0.96,2.08,2.26c-0.35,2.37-4.66,4.87-7.22,6.35c-1.38,0.81-6.67,4.02-8.32,4.02
		c-4.3-0.63-5.88-6.06-5.64-10.4c0-0.02,0-0.04,0-0.06c-0.34,0.1-0.64,0.14-1.23,0.09c-0.58-0.09-1.11-1.18-1.07-1.94
		c0.17-1.92,0.7-2.29,2.67-3.07c0.04-0.5,0.07-0.98,0.11-1.48c0.8-8.81,4.52-15.6,6.38-15.66c7.04,1.04,11.12,7.34,11.1,10.27
		c-0.15,2.06-0.2,4.04-2.73,5.6c-2.02,1.17-7.99,3.84-9.14,4.59C355.95,218.07,355.93,218.4,355.9,218.77z M356.34,212.07
		c1.24-0.62,4.86-2.1,5.92-2.74c0.12-2.4-1.15-4.41-3.3-4.72C357.83,204.7,356.57,209.54,356.34,212.07z"/>
	<path class="st3" d="M387.29,230.88c0.08-0.91,1.29-12.57,1.38-15.73c0.05-2.86-0.45-6.29-2.13-6.67
		c-1.78-0.08-5.85,3.98-6.37,8.71c-0.4,6.36,1.1,10.85,0.95,13.82c-0.2,1.3-2.66,1.64-3.58,1.56c-1.7-0.23-3.03-0.92-3.4-1.77
		c-0.47-1.96-0.66-8.17-0.7-10.35c0.02-6.87-0.77-11.31-0.59-14.29c0.29-2.41,2.75-3.69,3.74-3.61c2.35,0.35,3.63,1.1,3.74,6.53
		c2.03-3.4,5.45-6.52,8.81-6.14c2.34,0.43,4.42,2.23,5.11,5.4c2.35-2.82,6.75-4.14,10.09-3.62c3.22,0.79,4.6,6.11,4.64,9.98
		c-0.01,2.68-0.11,7.26-0.25,10.08c-0.13,2.82,0.05,5.9-0.06,7.64c-0.17,1.73-1.17,3.15-4.25,2.73c-3.06-0.55-3.36-2-3.25-3.66
		c0.29-3.7,1.05-10.65,1.31-14.01c0.21-2.93,0.44-7.03-1.61-7.54c-2.1-0.3-3.24,0.55-5.81,2.96c-0.03,0.3-0.09,7.82-0.21,10.43
		c-0.14,2.81-0.13,5.9-0.25,7.61c-0.16,1.71-0.98,3.08-4,2.78C387.87,233.31,387.2,232.51,387.29,230.88z"/>
	<path class="st3" d="M436.77,237.49c-2.96,2.36-7.23,2.73-10.37,2.18c-3.12-0.64-4.74-1.78-4.7-4.09c0.35-4.04,3.13-6.85,6.85-9.19
		c3.01-2.08,6.36-3.86,7.26-4.38c0.56-0.31,1.11-0.45,1.57-0.43c-0.18-2.3-0.87-4.82-2.87-5.34c-1.84-0.32-4.37,0.72-5.51,1.64
		c-0.22,0.19-1.09,1.07-1.74,0.99c-1.1-0.26-2.69-1.65-2.63-3.48c0.09-1.02,0.56-1.6,1.18-2.01c2.04-1.12,8.13-2.58,10.5-2.16
		c2.01,0.47,5.56,1.75,7.36,12.16c0.81,4.25,0.46,10,0.37,11.24c-0.11,1.3-0.57,4.83-1.63,7.17c-0.39,0.73-2.27,0.67-2.99,0.53
		c-1.1-0.25-3.05-0.95-2.99-2.96C436.55,238.72,436.65,238.12,436.77,237.49z M430.13,231c-1.22,1.37-1.44,2.12-1.52,3.2
		c-0.05,0.96,0.5,1.57,1.47,1.78c2.95,0.47,4.81-1.58,5.47-1.88c0.95-0.33,1.85-0.62,1.71-0.49c0.15-2.08,0.35-4.7,0.36-7.31
		C435.7,227.15,432.12,228.89,430.13,231z"/>
	<path class="st3" d="M452.22,197.82c1.48,0.5,3.37,1.87,3.39,3.53c-0.08,1.72-0.67,4.89-1.01,9.13c-0.19,3.53,0.82,15.5,0.79,19.3
		c0.01,5.04,1.28,11.84,1.21,13.79c-0.2,1.93-1.53,2.51-3.56,2.07c-1.88-0.47-4.03-1.47-4.12-3.22c0-2.07-0.5-8.23-0.47-14.25
		c-0.01-6.02-1.46-16.75-0.95-24.94C447.97,198.08,449.62,197.07,452.22,197.82z"/>
	<path class="st3" d="M464.52,201.81c1.47,0.52,3.37,1.87,3.4,3.42c-0.07,1.62-0.65,4.57-0.97,8.61
		c-0.17,3.37,0.86,15.07,0.83,18.85c0.01,5.01,1.28,11.95,1.2,13.94c-0.21,1.98-1.54,2.55-3.56,2.07c-1.87-0.51-4.02-1.57-4.11-3.37
		c0-2.12-0.49-8.4-0.46-14.37c-0.02-5.98-1.49-16.48-1-24.23C460.28,201.89,461.93,201.01,464.52,201.81z"/>
	<path class="st3" d="M289.18,217.74c-0.16,2.45,0.24,3.67,2.48,3.75c2.32-0.03,4.37-1.31,5.53-1.88c1.08-0.6,2.94-3.04,4.79-3.1
		c1.84,0.09,2.82,1.16,2.79,2.21c-0.67,3.89-10.06,6.88-14.97,7.02c-6.72-0.27-7.7-3.56-7.5-7c1.42-12.9,13.14-23.58,15.6-23.9
		c1.71,0.07,2.83,0.94,2.67,3.7c-0.17,2.05-0.71,4.02-2.52,4.47C292.79,204.47,289.64,213.03,289.18,217.74z"/>
	<g>
		<path class="st4" d="M495.31,243.91c-0.48-0.56-0.81-1.14-1.36-1.58c0.92-1.33,1.33-2.6,1.47-4.5c0.06-0.81,0.18-2.19,0.33-3.78
			c0.3-3.28,0.71-7.78,0.97-12.01c0.24-3.97,0.7-7.52,0.97-9.65c0.13-0.99,0.21-1.59,0.24-2.02c0.37-5.18-3.28-9.37-8.5-9.75
			c-2.19-0.16-4.52,0.68-6.39,2.3c-1.86,1.61-3.02,3.76-3.17,5.88c-0.07,0.98-0.06,3.06-0.05,6.64c0.02,3.46,0.04,7.76-0.08,9.38
			c-0.15,2.04-0.29,5.86-0.41,8.94c-0.07,1.88-0.14,3.66-0.18,4.17c-0.1,1.44,0.06,2.49,0.9,3.75c-2.39,1.32-3.92,3.76-4.18,6.45
			c-0.23,2.28,0.4,4.34,1.8,5.98c1.82,2.12,4.69,3.25,8.79,3.47c5.26,0.28,10.84-1.94,11.32-6.75
			C497.99,248.74,497.06,245.94,495.31,243.91z"/>
		<path class="st3" d="M489.09,205.3c2.8,0.2,4.32,2.32,4.15,4.73c-0.08,1.07-0.87,5.98-1.21,11.72c-0.38,6.28-1.11,13.2-1.29,15.74
			c-0.13,1.8-0.97,3.3-3.04,3.26c-2.94-0.06-3.83-2.08-3.72-3.62c0.11-1.47,0.21-8.7,0.45-11.97c0.23-3.2-0.01-14.09,0.13-16.02
			C484.68,207.34,487.02,205.16,489.09,205.3z M487.19,244.25c3.2,0.2,5.8,4.2,5.46,5.99c-0.28,1.43-2.96,2.42-5.76,2.27
			c-3.8-0.2-5.79-1.43-5.55-3.87C481.52,246.87,484.96,244.11,487.19,244.25z"/>
	</g>
</g>
</svg>
